<?xml version="1.0" encoding="UTF-8"?>
<svg width="224px" height="20px" viewBox="0 0 224 20" version="1.1" xmlns="http://www.w3.org/2000/svg" xmlns:xlink="http://www.w3.org/1999/xlink">
    <title>FUNDING-button</title>
    <defs>
        <linearGradient x1="50%" y1="0%" x2="50%" y2="100%" id="linearGradient-1">
            <stop stop-color="#FCFCFC" offset="0%"></stop>
            <stop stop-color="#E4E4E4" offset="100%"></stop>
        </linearGradient>
        <text id="text-2" font-family="'Helvetica Neue', Helvetica, Arial, sans-serif" font-size="11" font-weight="bold" line-spacing="11" fill="#333333">
            <tspan x="20" y="14">Pay me a drink</tspan>
        </text>
        <filter x="-0.3%" y="-2.3%" width="100.6%" height="127.3%" filterUnits="objectBoundingBox" id="filter-3">
            <feOffset dx="0" dy="0.5" in="SourceAlpha" result="shadowOffsetOuter1"></feOffset>
            <feColorMatrix values="0 0 0 0 1   0 0 0 0 1   0 0 0 0 1  0 0 0 1 0" type="matrix" in="shadowOffsetOuter1"></feColorMatrix>
        </filter>
        <linearGradient x1="50%" y1="0%" x2="50%" y2="100%" id="linearGradient-4">
            <stop stop-color="#FCFCFC" offset="0%"></stop>
            <stop stop-color="#E4E4E4" offset="100%"></stop>
        </linearGradient>
        <text id="text-5" font-family="'Helvetica Neue', Helvetica, Arial, sans-serif" font-size="11" font-weight="bold" line-spacing="11" fill="#333333">
            <tspan x="21" y="14">Sponsor my work</tspan>
        </text>
        <filter x="-0.3%" y="-2.3%" width="100.5%" height="127.3%" filterUnits="objectBoundingBox" id="filter-6">
            <feOffset dx="0" dy="0.5" in="SourceAlpha" result="shadowOffsetOuter1"></feOffset>
            <feColorMatrix values="0 0 0 0 1   0 0 0 0 1   0 0 0 0 1  0 0 0 1 0" type="matrix" in="shadowOffsetOuter1"></feColorMatrix>
        </filter>
    </defs>
    <g id="Page-1" stroke="none" stroke-width="1" fill="none" fill-rule="evenodd">
        <g id="FUNDING-button">
            <g id="button-2">
                <rect id="Rectangle" stroke="#D5D5D5" fill="url(#linearGradient-1)" x="0.5" y="0.5" width="101" height="19" rx="2.8"></rect>
                <g id="Pay-me-a-drink" fill="#333333" fill-opacity="1">
                    <use filter="url(#filter-3)" xlink:href="#text-2"></use>
                    <use xlink:href="#text-2"></use>
                </g>
                <path d="M13.8883169,15 C14.784486,15 15.2802392,14.5276718 15.2802392,13.6259542 L15.2802392,10.6965649 L15.3136072,10.6965649 C15.7330907,10.605916 15.9666667,10.2671756 15.9666667,9.78053435 L15.9666667,8.52576336 C15.9666667,7.94370229 15.6425204,7.57633588 15.0609638,7.57633588 L14.0980586,7.57633588 C14.350702,7.32347328 14.4984746,6.97996183 14.4984746,6.58396947 C14.4984746,5.65839695 13.7691454,5 12.8443751,5 C12.1770151,5 11.6240596,5.36736641 11.3809499,6.00667939 C11.1378402,5.36736641 10.5896516,5 9.9175247,5 C8.99752123,5 8.2634252,5.65839695 8.2634252,6.58396947 C8.2634252,6.97996183 8.41119778,7.32347328 8.66860808,7.57633588 L7.70570289,7.57633588 C7.14798059,7.57633588 6.8,7.94370229 6.8,8.52576336 L6.8,9.78053435 C6.8,10.2671756 7.02880915,10.605916 7.4482926,10.6965649 L7.4816606,10.6965649 L7.4816606,13.6259542 C7.4816606,14.5276718 7.97741376,15 8.8783498,15 L13.8883169,15 Z M10.9900676,7.57633588 L10.2464379,7.57633588 C9.49804125,7.57633588 9.05949038,7.15171756 9.05949038,6.6269084 C9.05949038,6.10209924 9.44083897,5.79675573 9.96519327,5.79675573 C10.5324493,5.79675573 10.9900676,6.22614504 10.9900676,6.93225191 L10.9900676,7.57633588 Z M12.515462,7.57633588 L11.7718322,7.57633588 L11.7718322,6.93225191 C11.7718322,6.22614504 12.2294505,5.79675573 12.7967065,5.79675573 C13.3210608,5.79675573 13.7024094,6.10209924 13.7024094,6.6269084 C13.7024094,7.15171756 13.2686254,7.57633588 12.515462,7.57633588 Z M10.9566996,10.009542 L7.90114405,10.009542 C7.66280118,10.009542 7.56746403,9.90935115 7.56746403,9.67080153 L7.56746403,8.63072519 C7.56746403,8.39217557 7.66280118,8.29675573 7.90114405,8.29675573 L10.9566996,8.29675573 L10.9566996,10.009542 Z M14.8702895,10.009542 L11.8052002,10.009542 L11.8052002,8.29675573 L14.8702895,8.29675573 C15.1086323,8.29675573 15.1992026,8.39217557 15.1992026,8.63072519 L15.1992026,9.67080153 C15.1992026,9.90935115 15.1086323,10.009542 14.8702895,10.009542 Z M10.9566996,14.2843511 L8.86881609,14.2843511 C8.47316693,14.2843511 8.24912463,14.0601145 8.24912463,13.6641221 L8.24912463,10.7299618 L10.9566996,10.7299618 L10.9566996,14.2843511 Z M13.8930837,14.2843511 L11.8052002,14.2843511 L11.8052002,10.7299618 L14.5127752,10.7299618 L14.5127752,13.6641221 C14.5127752,14.0601145 14.2887329,14.2843511 13.8930837,14.2843511 Z" id="􀑉" fill="#D20000" fill-rule="nonzero"></path>
            </g>
            <g id="button" transform="translate(106.000000, 0.000000)">
                <rect id="Rectangle" stroke="#D5D5D5" fill="url(#linearGradient-4)" x="0.5" y="0.5" width="117" height="19" rx="2.8"></rect>
                <g id="Sponsor-my-work" fill="#333333" fill-opacity="1">
                    <use filter="url(#filter-6)" xlink:href="#text-5"></use>
                    <use xlink:href="#text-5"></use>
                </g>
                <path d="M11.4545455,15 C11.5698984,15 11.7346883,14.9237473 11.8555342,14.8529412 C14.9480912,12.8921569 16.9090909,10.6100218 16.9090909,8.28976035 C16.9090909,6.36165577 15.5742928,5 13.7945619,5 C12.7783576,5 11.9544081,5.47930283 11.4545455,6.21459695 C10.9656688,5.48474946 10.1307333,5 9.11452898,5 C7.33479813,5 6,6.36165577 6,8.28976035 C6,10.6100218 7.96099973,12.8921569 11.0590497,14.8529412 C11.1744026,14.9237473 11.3391925,15 11.4545455,15 Z M11.4545455,14.0795207 C11.4325735,14.0795207 11.3941225,14.0522876 11.3446855,14.0141612 C9.04312002,12.5 6.88437243,10.3159041 6.88437243,8.28976035 C6.88437243,6.84095861 7.82916781,5.87690632 9.10354298,5.87690632 C10.1362263,5.87690632 10.7294699,6.51416122 11.0810217,7.05882353 C11.2293326,7.27668845 11.3227135,7.33660131 11.4545455,7.33660131 C11.5863774,7.33660131 11.6687723,7.27124183 11.8280692,7.05882353 C12.207086,6.52505447 12.7783576,5.87690632 13.8055479,5.87690632 C15.0799231,5.87690632 16.0247185,6.84095861 16.0247185,8.28976035 C16.0247185,10.3159041 13.8659709,12.5 11.5698984,14.0141612 C11.5149684,14.0522876 11.4765174,14.0795207 11.4545455,14.0795207 Z" id="􀊴" fill="#EA4AAA" fill-rule="nonzero"></path>
            </g>
        </g>
    </g>
</svg>
