<?xml version="1.0" encoding="UTF-8"?>
<svg width="140px" height="180px" viewBox="0 0 140 180" version="1.1" xmlns="http://www.w3.org/2000/svg" xmlns:xlink="http://www.w3.org/1999/xlink">
    <title>FUNDING</title>
    <defs>
        <linearGradient x1="50%" y1="0%" x2="50%" y2="100%" id="linearGradient-1">
            <stop stop-color="#FBFCFD" offset="0%"></stop>
            <stop stop-color="#FAFBFC" offset="100%"></stop>
        </linearGradient>
        <text id="text-2" font-family="-apple-system, BlinkMacSystemFont, 'Segoe UI', Roboto, Helvetica, Arial, sans-serif, 'Apple Color Emoji', 'Segoe UI Emoji', 'Segoe UI Symbol'" font-size="12" font-weight="bold" line-spacing="12" fill="#24292E">
            <tspan x="29" y="18">Pay me a drink</tspan>
        </text>
        <filter x="-0.3%" y="-2.1%" width="100.6%" height="125.0%" filterUnits="objectBoundingBox" id="filter-3">
            <feOffset dx="0" dy="0.5" in="SourceAlpha" result="shadowOffsetOuter1"></feOffset>
            <feColorMatrix values="0 0 0 0 1   0 0 0 0 1   0 0 0 0 1  0 0 0 1 0" type="matrix" in="shadowOffsetOuter1"></feColorMatrix>
        </filter>
        <text id="text-4" font-family="-apple-system, BlinkMacSystemFont, 'Segoe UI', Roboto, Helvetica, Arial, sans-serif, 'Apple Color Emoji', 'Segoe UI Emoji', 'Segoe UI Symbol'" font-size="12" font-weight="bold" line-spacing="12" fill="#24292E">
            <tspan x="28" y="18">Sponsor my work</tspan>
        </text>
        <filter x="-0.2%" y="-2.1%" width="100.5%" height="125.0%" filterUnits="objectBoundingBox" id="filter-5">
            <feOffset dx="0" dy="0.5" in="SourceAlpha" result="shadowOffsetOuter1"></feOffset>
            <feColorMatrix values="0 0 0 0 1   0 0 0 0 1   0 0 0 0 1  0 0 0 1 0" type="matrix" in="shadowOffsetOuter1"></feColorMatrix>
        </filter>
        <linearGradient x1="98.1901955%" y1="49.5912201%" x2="5.00079597%" y2="51.3311086%" id="linearGradient-6">
            <stop stop-color="#0B5F90" offset="0%"></stop>
            <stop stop-color="#23C3AF" offset="100%"></stop>
        </linearGradient>
        <path d="M5.87846922,22.8902443 C29.5160998,14.0642077 45.7300003,8.5324064 54.5201707,6.2948403 C73.5435332,1.45238229 84.8174727,1.59519705 90,1.1445425 C89.0644951,0.770340553 85.416151,-0.00404053422 81.4161703,-2.55795385e-14 C80.9053342,0.000551959487 80.2101118,1.15900089 79.6994044,1.1445425 C78.7271811,1.11701834 79.3466672,0.131519632 78.2472508,0.134302857 C70.6151804,0.153623806 60.0609776,0.974264326 48.5646064,3.58277761 C34.1214305,6.85991747 20.1532557,12.3026322 5.87846922,16.5954359 C3.79923944,17.220715 1.56376092,17.8037929 0.155916107,19.4567125 C-0.621867118,20.3698906 1.75727366,19.4072708 1.87268204,20.6012231 C0.91415702,21.2175917 0.532653479,21.5990953 0.728171418,21.7457337 C1.04132487,21.9805988 2.7580908,22.3621023 5.87846922,22.8902443 Z" id="path-7"></path>
        <filter x="-9.6%" y="-29.5%" width="120.0%" height="176.4%" filterUnits="objectBoundingBox" id="filter-8">
            <feMorphology radius="0.25" operator="dilate" in="SourceAlpha" result="shadowSpreadOuter1"></feMorphology>
            <feOffset dx="0" dy="2" in="shadowSpreadOuter1" result="shadowOffsetOuter1"></feOffset>
            <feGaussianBlur stdDeviation="2.5" in="shadowOffsetOuter1" result="shadowBlurOuter1"></feGaussianBlur>
            <feComposite in="shadowBlurOuter1" in2="SourceAlpha" operator="out" result="shadowBlurOuter1"></feComposite>
            <feColorMatrix values="0 0 0 0 0.479189223   0 0 0 0 0.0877801176   0 0 0 0 0.401203835  0 0 0 0.5 0" type="matrix" in="shadowBlurOuter1"></feColorMatrix>
        </filter>
        <linearGradient x1="100%" y1="19.3059836%" x2="0%" y2="29.597227%" id="linearGradient-9">
            <stop stop-color="#FECF24" offset="0%"></stop>
            <stop stop-color="#FD12C9" offset="100%"></stop>
        </linearGradient>
        <linearGradient x1="100%" y1="61.8202706%" x2="5.33451096%" y2="38.4727062%" id="linearGradient-10">
            <stop stop-color="#90F0FF" offset="0%"></stop>
            <stop stop-color="#79E3EA" offset="100%"></stop>
        </linearGradient>
        <linearGradient x1="50%" y1="0%" x2="50%" y2="100%" id="linearGradient-11">
            <stop stop-color="#64ECF5" offset="0%"></stop>
            <stop stop-color="#1FA1DE" offset="100%"></stop>
        </linearGradient>
        <rect id="path-12" x="0" y="0" width="54" height="54" rx="27"></rect>
        <linearGradient x1="93.5107003%" y1="40.7848773%" x2="0%" y2="40.7848773%" id="linearGradient-14">
            <stop stop-color="#D7C3C0" offset="0%"></stop>
            <stop stop-color="#CF9673" offset="100%"></stop>
        </linearGradient>
        <linearGradient x1="68.9355901%" y1="17.5914261%" x2="31.0644099%" y2="84.8851538%" id="linearGradient-15">
            <stop stop-color="#6A7182" offset="0%"></stop>
            <stop stop-color="#15001C" offset="100%"></stop>
        </linearGradient>
    </defs>
    <g id="Page-1" stroke="none" stroke-width="1" fill="none" fill-rule="evenodd">
        <g id="FUNDING">
            <g id="button-2" transform="translate(0.000000, 116.000000)">
                <rect id="Rectangle" stroke="#D9DBDC" fill="url(#linearGradient-1)" x="0.5" y="0.5" width="139" height="27" rx="2.8"></rect>
                <g id="Pay-me-a-drink" fill="#24292E" fill-opacity="1">
                    <use filter="url(#filter-3)" xlink:href="#text-2"></use>
                    <use xlink:href="#text-2"></use>
                </g>
                <path d="M19.7236436,21 C20.9782805,21 21.6723349,20.3387405 21.6723349,19.0763359 L21.6723349,14.9751908 L21.7190501,14.9751908 C22.3063269,14.8482824 22.6333333,14.3740458 22.6333333,13.6927481 L22.6333333,11.9360687 C22.6333333,11.1211832 22.1795285,10.6068702 21.3653493,10.6068702 L20.017282,10.6068702 C20.3709828,10.2528626 20.5778644,9.77194656 20.5778644,9.21755725 C20.5778644,7.92175573 19.5568036,7 18.2621252,7 C17.3278211,7 16.5536835,7.51431298 16.2133299,8.40935115 C15.8729763,7.51431298 15.1055122,7 14.1645346,7 C12.8765297,7 11.8487953,7.92175573 11.8487953,9.21755725 C11.8487953,9.77194656 12.0556769,10.2528626 12.4160513,10.6068702 L11.0679841,10.6068702 C10.2871728,10.6068702 9.8,11.1211832 9.8,11.9360687 L9.8,13.6927481 C9.8,14.3740458 10.1203328,14.8482824 10.7076096,14.9751908 L10.7543248,14.9751908 L10.7543248,19.0763359 C10.7543248,20.3387405 11.4483793,21 12.7096897,21 L19.7236436,21 Z M15.6660946,10.6068702 L14.625013,10.6068702 C13.5772578,10.6068702 12.9632865,10.0124046 12.9632865,9.27767176 C12.9632865,8.54293893 13.4971746,8.11545802 14.2312706,8.11545802 C15.025429,8.11545802 15.6660946,8.71660305 15.6660946,9.70515267 L15.6660946,10.6068702 Z M17.8016467,10.6068702 L16.7605651,10.6068702 L16.7605651,9.70515267 C16.7605651,8.71660305 17.4012307,8.11545802 18.1953891,8.11545802 C18.9294852,8.11545802 19.4633732,8.54293893 19.4633732,9.27767176 C19.4633732,10.0124046 18.8560756,10.6068702 17.8016467,10.6068702 Z M15.6193794,14.0133588 L11.3416017,14.0133588 C11.0079217,14.0133588 10.8744496,13.8730916 10.8744496,13.5391221 L10.8744496,12.0830153 C10.8744496,11.7490458 11.0079217,11.615458 11.3416017,11.615458 L15.6193794,11.615458 L15.6193794,14.0133588 Z M21.0984053,14.0133588 L16.8072803,14.0133588 L16.8072803,11.615458 L21.0984053,11.615458 C21.4320853,11.615458 21.5588837,11.7490458 21.5588837,12.0830153 L21.5588837,13.5391221 C21.5588837,13.8730916 21.4320853,14.0133588 21.0984053,14.0133588 Z M15.6193794,19.9980916 L12.6963425,19.9980916 C12.1424337,19.9980916 11.8287745,19.6841603 11.8287745,19.129771 L11.8287745,15.0219466 L15.6193794,15.0219466 L15.6193794,19.9980916 Z M19.7303172,19.9980916 L16.8072803,19.9980916 L16.8072803,15.0219466 L20.5978852,15.0219466 L20.5978852,19.129771 C20.5978852,19.6841603 20.284226,19.9980916 19.7303172,19.9980916 Z" id="􀑉" fill="#D20000" fill-rule="nonzero"></path>
            </g>
            <g id="button" transform="translate(0.000000, 152.000000)">
                <rect id="Rectangle" stroke="#D9DBDC" fill="url(#linearGradient-1)" x="0.5" y="0.5" width="139" height="27" rx="2.8"></rect>
                <g id="Sponsor-my-work" fill="#24292E" fill-opacity="1">
                    <use filter="url(#filter-5)" xlink:href="#text-4"></use>
                    <use xlink:href="#text-4"></use>
                </g>
                <path d="M15,20.8333333 C15.1480363,20.8333333 15.3595166,20.7354757 15.5146022,20.6446078 C19.4833837,18.128268 22,15.199528 22,12.2218591 C22,9.74745824 20.2870091,8 18.0030211,8 C16.6988922,8 15.6414904,8.6151053 15,9.55873275 C14.3726083,8.62209513 13.3011078,8 11.9969789,8 C9.71299094,8 8,9.74745824 8,12.2218591 C8,15.199528 10.5166163,18.128268 14.4924471,20.6446078 C14.6404834,20.7354757 14.8519637,20.8333333 15,20.8333333 Z M15,19.6520516 C14.9718026,19.6520516 14.9224572,19.6171024 14.8590131,19.5681736 C11.9053374,17.625 9.13494461,14.822077 9.13494461,12.2218591 C9.13494461,10.3625635 10.347432,9.12536311 11.9828802,9.12536311 C13.3081571,9.12536311 14.0694864,9.94317357 14.5206445,10.6421569 C14.7109768,10.9217502 14.8308157,10.9986383 15,10.9986383 C15.1691843,10.9986383 15.2749245,10.9147603 15.4793555,10.6421569 C15.9657603,9.95715323 16.6988922,9.12536311 18.0171198,9.12536311 C19.652568,9.12536311 20.8650554,10.3625635 20.8650554,12.2218591 C20.8650554,14.822077 18.0946626,17.625 15.1480363,19.5681736 C15.0775428,19.6171024 15.0281974,19.6520516 15,19.6520516 Z" id="􀊴" fill="#EA4AAA" fill-rule="nonzero"></path>
            </g>
            <text id="Enjoying-my-work?" font-family="-apple-system, BlinkMacSystemFont, 'Segoe UI', Roboto, Helvetica, Arial, sans-serif, 'Apple Color Emoji', 'Segoe UI Emoji', 'Segoe UI Symbol'" font-size="14" font-weight="normal" fill="#7B7B7B">
                <tspan x="11.2553711" y="105">Enjoying my work?</tspan>
            </text>
            <g id="picture" transform="translate(22.000000, 0.000000)">
                <g id="stroke" transform="translate(6.863771, 53.999972)" fill-rule="nonzero">
                    <g id="Path-2">
                        <use fill="black" fill-opacity="1" filter="url(#filter-8)" xlink:href="#path-7"></use>
                        <use fill="#FFFFFF" xlink:href="#path-7"></use>
                        <use stroke="#A56C99" stroke-width="0.5" fill="url(#linearGradient-6)" xlink:href="#path-7"></use>
                    </g>
                </g>
                <path d="M99.9168864,3.9169614 L49.2030145,84.2139253 L-2.56739646,28.2173584 L99.9168864,3.9169614 Z" id="Triangle" stroke="url(#linearGradient-10)" stroke-width="2.70773416" fill="url(#linearGradient-9)"></path>
                <g id="avatar" transform="translate(20.000000, 0.000000)">
                    <mask id="mask-13" fill="white">
                        <use xlink:href="#path-12"></use>
                    </mask>
                    <use id="Rectangle" fill="url(#linearGradient-11)" xlink:href="#path-12"></use>
                    <g id="max-2021-light" mask="url(#mask-13)" fill-rule="nonzero">
                        <g transform="translate(-1.000000, 6.000000)" id="Path">
                            <path d="M2.14507221,49.7449235 C2.27888962,45.5503313 2.34579833,42.7303183 2.34579833,41.2848846 C2.34579833,40.0945273 2.38594356,39.1167339 2.46623401,39.1167339 C2.54652446,39.1167339 5.27639974,38.6490936 8.6084534,38.0539149 C11.9003618,37.4587363 14.6703824,36.991096 14.7506728,36.991096 C15.1922703,36.991096 15.801004,32.1520131 15.1586804,30.8766303 C14.5966473,29.7712986 12.9842829,27.850853 12.8638472,23.5145516 C12.7032663,18.2854824 12.7434116,17.8178421 13.5463161,16.7550231 C13.9879135,16.1173317 14.3893658,15.3095893 14.3893658,14.9269745 C14.3893658,13.3114897 15.9951748,7.57226733 16.7177888,6.50944837 C17.1593863,5.871757 18.0746207,4.08018075 19.3673737,3.44852978 C24.4494845,0.965363709 21.5155464,0.965363709 25.9164536,0.965363709 C26.8819456,0.965363709 26.8090599,-0.012314512 27.8724123,0 C29.3471114,0.0179325361 29.7631246,0.732850046 31.2953402,0.965363709 C32.4204755,1.13610295 34.5587681,0.406153687 35.6962474,0.482923925 C37.110965,0.578405405 37.4341499,1.47064585 37.6735962,1.62048118 C39.3195504,2.68330014 41.9691352,6.16934631 43.2939276,8.97518835 C44.4982844,11.4409283 44.4982844,11.4409283 44.257413,19.2207631 C43.9763965,28.3184933 43.4437023,29.5181076 41.075134,32.3239497 C40.2722295,33.3017431 38.0135132,36.2980923 37.6522062,37.1483475 C36.8493017,39.0189089 37.7940318,39.1592467 42.5311684,41.1573463 C45.2610437,42.3051908 47.2683049,43.4530352 51.4434083,46.2163645 C53.0492173,47.2791835 53.53096,49.2347704 52.3266032,49.7449235 C51.4969353,50.0850255 34.7697582,50.0850255 2.14507221,49.7449235 Z" fill="#BEFFFF"></path>
                            <path d="M19.172924,48.9919246 C19.172924,48.3439872 14.95387,19.6187621 15.5135404,19.6187621 C16.4176234,19.6187621 23.0475655,4.71620168 28.6442699,4.71620168 C34.2409743,4.71620168 42.5499277,12.5346464 42.420773,13.3553671 C42.3346698,14.1760878 42.1624635,16.6814458 41.9902572,17.3725791 C41.7749994,18.150104 41.8611025,18.5388664 42.1624635,18.5388664 C42.8943403,18.5388664 42.5499277,24.888653 41.6888962,26.7460736 C41.3444837,27.5667943 40.8278648,28.7762775 40.5695554,29.4674107 C40.2681944,30.1153481 39.8376786,30.633698 39.5793692,30.633698 C38.8474925,30.633698 37.5128937,32.3183353 37.1684812,33.6142101 C37.0393265,34.2189517 36.5657592,35.3420432 36.178295,36.0331764 C35.0589541,38.0201845 34.8867478,39.1864718 35.6186246,39.7480176 C36.4366044,40.4823466 36.0491403,42.5125505 34.4131806,46.0546084 C33.1216334,48.7759455 33.164685,48.9919246 27.5679806,48.9919246 C23.9229475,48.9919246 21.1245953,48.9919246 19.172924,48.9919246 Z" fill="url(#linearGradient-14)"></path>
                            <path d="M15.556592,44.0244045 C15.8149014,44.0244045 15.9871077,43.0740963 15.9010046,41.4758507 C15.8149014,39.8344092 15.9871077,38.6249261 16.3745719,38.1929678 C17.2356033,37.1562679 16.6328813,29.2082357 15.556592,27.4372068 C14.9969215,26.5732903 14.652509,24.8454572 14.4372511,22.4264909 C14.1789417,19.0572163 14.2219932,18.6684539 15.0830247,17.5885582 C15.556592,16.9406208 16.2454171,15.1695919 16.5467781,13.7009338 C16.8911907,12.1890798 17.2356033,10.6772258 17.364758,10.3316592 C17.4939127,9.98609261 17.7091706,9.16537189 17.8383253,8.51743448 C18.1396863,7.26475549 20.5505743,4.71620168 21.4546574,4.71620168 C21.7560184,4.71620168 22.1865341,4.28424341 22.4017919,3.76589349 C22.6170498,3.20434773 23.4715051,2.11031227 23.4715051,2.41268306 C23.5002062,2.95983021 24.315189,3.12064347 25.9164536,2.89512284 C26.396855,2.65495695 26.7228481,2.49414369 26.894433,2.41268306 C27.851041,1.95852934 28.4026305,1.97091945 28.8503917,2.41268306 C29.0552088,2.61475662 30.162727,3.17448337 31.2953402,2.89512284 C33.2512989,2.41268306 35.2322768,1.75452278 35.2072577,1.93024328 C35.1211546,2.14622241 34.115546,3.37756263 34.718268,3.37756263 C34.9773569,3.37756263 35.7953975,3.76218042 36.6742268,2.89512284 C36.849506,2.72219141 37.563855,3.19910697 38.1411958,3.86000241 C38.3088951,4.05197165 37.4417247,4.2732215 37.6522062,4.3424422 C38.2734632,4.546754 38.1430428,4.2265438 38.6301855,4.82488198 C38.8653138,5.11368069 38.7388454,5.60214385 39.1191752,5.78976155 C40.0971546,6.27220133 41.4333883,7.43749778 41.5641237,7.71952068 C41.8224331,8.23787061 40.6876698,8.07965867 41.075134,8.68440025 C41.4153648,9.19645658 42.281992,9.59164656 42.5421031,10.6141594 C42.5806115,10.7655383 42.9828869,11.4051814 43.0310927,11.579039 C43.234101,12.3112015 43.1220019,13.2159209 43.0310927,13.9912379 C42.7727833,16.4534 42.4405775,23.6181765 42.0531134,22.1927142 C41.9670102,21.8039518 40.9736084,22.1713754 40.5861443,23.6400336 C39.9834223,25.9726082 40.0971546,17.9366295 40.0971546,14.9561174 C40.0971546,11.0252972 38.1156158,9.8133093 33.2077365,8.56063031 C28.730373,7.4375388 26.4055881,7.39434297 25.5876083,8.47423865 C24.0808033,10.3748551 23.6502875,11.1955758 23.0906171,13.2689755 C22.4448435,15.7743335 22.6170498,16.0335084 25.2001441,17.3725791 C27.2666196,18.4092789 27.82629,19.7915454 27.1374649,22.2105117 C26.620846,24.1111281 26.018124,24.9318488 25.5445567,24.4566947 C25.415402,24.3271073 26.233237,22.9775248 26.4054433,22.675154 C26.8790106,21.9840208 26.3469693,20.9686597 25.9164536,21.2278346 C25.7442473,21.3142263 25.4274639,21.7102744 24.9384742,21.7102744 C23.4715051,21.7102744 22.7518352,21.0550513 22.4935258,21.2278346 C21.2450302,22.134947 20.6358769,21.1341573 19.5595876,20.7453949 C18.1819373,20.1838491 18.1396863,21.9081409 18.5271505,25.147828 C18.8285115,27.9555567 19.0868209,28.3443192 21.0241416,28.7330816 C22.2295857,28.9922566 22.4448435,28.8626691 22.8323077,27.8691651 C23.0475655,27.2644235 23.3489265,26.7460736 23.4780812,26.7460736 C23.6502875,26.7460736 24.4682674,27.4372068 25.3292988,28.2579275 C26.7069492,29.5969982 27.1374649,29.7697815 28.3859605,29.5538023 C29.5483529,29.3378232 29.8066623,29.381019 29.5914045,29.9425648 C29.2900435,30.7200897 30.2802296,31.5840062 31.5287252,31.6703979 C32.7341692,31.7135937 33.5521491,33.0094685 32.8202724,33.7437976 C32.4328082,34.13256 32.1744988,34.13256 31.8300862,33.7869934 C31.5717768,33.5278185 31.0551579,33.398231 30.7537969,33.5278185 C30.4093843,33.6574059 30.1510749,33.5278185 30.1510749,33.2686435 C30.1510749,33.0094685 30.4093843,32.7934894 30.7107454,32.7934894 C32.2606019,32.7502936 29.3761466,31.886377 27.0513617,31.6703979 C24.511319,31.4544187 24.3821643,31.4976146 25.2001441,32.145552 C26.018124,32.8366852 26.018124,32.8366852 24.6835253,32.6639019 C23.908597,32.5775103 23.1767202,32.7070977 23.0906171,32.9662727 C22.9614624,33.2254477 22.3156888,32.8366852 21.6268636,32.0591603 C20.6797291,31.1088521 20.2061618,30.8496772 19.8617492,31.1952438 C19.5173366,31.5408104 19.3881819,31.3248313 19.3881819,30.3745231 C19.3451303,29.1218441 19.3451303,29.1218441 18.7424083,30.2017398 C18.4410473,30.8064813 18.3549442,31.3680271 18.570202,31.4112229 C18.7854599,31.4976146 18.9576662,31.8431812 18.9576662,32.1887478 C18.9576662,32.5343144 19.2590272,33.2686435 19.6464913,33.8301892 C19.9909039,34.391735 20.5505743,35.8171973 20.8088838,36.9834846 C21.1532964,38.2793594 21.5838121,39.0136885 21.9282246,38.9272969 C22.2295857,38.884101 23.0906171,39.4456468 23.7794422,40.1799758 C24.8987831,41.3462632 25.1570926,41.4326548 25.4584536,40.8711091 C25.8459177,40.1799758 27.3527227,40.13678 28.3429089,40.7415216 C28.6442699,40.9143049 28.9886825,40.7847174 29.1178372,40.395955 C29.2469919,40.0071925 29.5483529,39.8344092 29.7636108,39.9639967 C29.9788686,40.0935842 30.1080233,40.0503884 30.0649718,39.8344092 C29.8066623,39.0568843 31.3134674,37.5882262 32.1744988,37.7178137 C33.0785818,37.890597 34.7145416,36.4651347 36.3505013,34.0893642 C37.1254296,33.0094685 37.1254296,33.0094685 36.8240686,34.0893642 C36.6518623,34.6941058 36.2213466,35.4284349 35.8338824,35.7308056 C35.4464183,35.9899806 35.274212,36.2491556 35.4464183,36.2491556 C35.6186246,36.2491556 35.575573,36.637918 35.3172636,37.1130721 C35.0589541,37.5882262 34.6284384,37.8474012 34.370129,37.7178137 C34.1118195,37.5450304 34.0257164,37.5882262 34.1548711,37.8474012 C34.4992837,38.4089469 31.2704158,41.5622423 30.7968485,41.130284 C30.6246422,40.9143049 30.5815906,41.0006966 30.7537969,41.3030674 C30.9260032,41.6054381 30.1080233,42.5125505 28.6012183,43.635642 C27.2666196,44.6291461 25.3723504,46.1841958 24.4252158,47.0913082 C22.7892561,48.7327496 22.6601014,48.7759455 19.6034398,48.7759455 C17.1495001,48.7759455 16.3745719,48.6031622 15.8149014,47.9984206 C14.9969215,47.134504 14.8247153,44.0244045 15.556592,44.0244045 Z" fill="url(#linearGradient-15)"></path>
                            <path d="M34.1979227,22.4696867 C33.8104585,23.1176241 32.3036535,22.901645 32.3036535,22.2105117 C32.3036535,21.8217493 32.0453441,21.6921618 31.6578799,21.8217493 C30.7537969,22.1673159 30.8399001,21.2602035 31.7870347,20.7418536 C32.4758598,20.3098953 32.4758598,20.3098953 31.7870347,20.2666995 C30.9260032,20.2666995 30.7537969,19.6187621 31.4856737,19.143608 C32.3897567,18.5820622 35.8338824,18.9276288 36.6518623,19.6619579 C37.1254296,20.0939162 37.4698422,20.5690703 37.4698422,20.7850494 C37.4698422,21.0010286 37.1684812,20.8714411 36.781017,20.5258745 C36.4366044,20.137112 35.4894699,19.8347412 34.7575931,19.877937 C33.5090975,19.877937 33.466046,19.9211329 34.1979227,20.396287 C36.4366044,21.8649451 36.8671202,22.3400992 36.2213466,22.9448408 C35.876934,23.2472116 35.7477793,23.2904074 35.876934,23.0312324 C36.2213466,22.4264909 34.5853868,21.9081409 34.1979227,22.4696867 Z" fill="#473C4F"></path>
                            <path d="M0.0149744599,48.7759455 C-0.0998297324,43.7364323 0.445490181,41.1014868 1.6509342,40.8711091 C5.05200839,40.2231717 7.204587,39.8776051 11.8541568,39.2296676 C13.748426,38.9704927 15.6426951,38.5817302 16.0301593,38.3657511 C17.1064486,37.8042053 17.2356033,37.8474012 17.2356033,39.0136885 C17.2356033,40.2807661 17.3791085,43.6788379 17.666119,49.2079037 L0.0149744599,48.7759455 Z" fill="#00346A"></path>
                            <path d="M34.67149,41.0438924 C34.972851,39.5752343 35.3603151,39.402451 36.178295,40.3527592 C36.479656,40.6983258 36.9532233,41.0006966 37.2115327,41.0006966 C38.1156158,41.0006966 45.8648987,44.4995586 46.338466,45.147496 C46.5967755,45.4930626 47.1133943,45.7522376 47.4578069,45.7522376 C48.1035805,45.7522376 52.1504283,48.6031622 52.1504283,48.9919246 C52.1504283,49.1215121 47.3717038,49.2079037 41.5597415,49.2079037 C31.0121064,49.2079037 30.8399001,49.2942954 31.6578799,48.1280081 C33.4086439,44.5859502 34.4131806,42.2245783 34.67149,41.0438924 Z" fill="#00346A"></path>
                            <path d="M13.1887555,43.8084253 C12.4138272,42.642138 12.2846725,42.5989422 9.31411403,42.901313 C7.63510272,43.0309004 5.00895682,43.5492504 3.45910023,44.0244045 C1.90924363,44.4995586 0.617696469,44.888321 0.574644897,44.888321 C0.488541753,44.888321 0.445490181,44.0244045 0.445490181,42.9877046 C0.445490181,40.9143049 0.0149744599,41.1734799 4.96590525,40.0935842 C8.84054674,39.2728635 14.7816637,38.4521428 15.1691278,38.6681219 C15.3843857,38.7977094 15.9440561,38.5817302 16.4176234,38.149772 C17.2356033,37.4154429 17.2356033,37.5018346 17.2356033,41.389459 C17.2356033,43.9380128 16.8911907,45.881825 18.3118926,47.0481124 C19.9478523,48.387183 19.6895429,48.9919246 18.3118926,48.9919246 C17.3217064,48.9919246 16.5467781,47.9552248 15.4704888,46.6593499 C14.652509,45.7522376 13.6192712,44.4563627 13.1887555,43.8084253 Z" fill="#00001F"></path>
                        </g>
                    </g>
                </g>
            </g>
        </g>
    </g>
</svg>
